<?xml version="1.0" encoding="utf-8"?>
<!-- Generator: Adobe Illustrator 16.0.3, SVG Export Plug-In . SVG Version: 6.00 Build 0)  -->
<!DOCTYPE svg PUBLIC "-//W3C//DTD SVG 1.1//EN" "http://www.w3.org/Graphics/SVG/1.1/DTD/svg11.dtd">
<svg version="1.1" id="Capa_1" xmlns="http://www.w3.org/2000/svg" xmlns:xlink="http://www.w3.org/1999/xlink" x="0px" y="0px"
	 width="1000px" height="1000px" viewBox="0 0 1000 1000" enable-background="new 0 0 1000 1000" xml:space="preserve">
<g>
	<g>
		<g>
			<path fill="#0055FF" d="M500,636.375c-133.04,0-241.276-108.232-241.276-241.267c0-133.041,108.236-241.272,241.276-241.272
				c60.658,0,118.628,22.573,163.235,63.567c12.802,11.761,13.642,31.667,1.881,44.464c-11.761,12.796-31.667,13.641-44.464,1.88
				c-32.967-30.291-75.811-46.972-120.652-46.972c-98.336,0-178.335,80-178.335,178.333c0,98.328,79.999,178.326,178.335,178.326
				c87.597,0,160.642-63.485,175.55-146.857H500c-17.383,0-31.47-14.087-31.47-31.469c0-17.384,14.087-31.471,31.47-31.471h209.801
				c17.383,0,31.471,14.087,31.471,31.471C741.271,528.143,633.039,636.375,500,636.375z"/>
		</g>
	</g>
	<g>
		<path fill="#0055FF" d="M709.801,636.375c-17.382,0-31.47-14.088-31.47-31.47V395.108c0-17.384,14.088-31.471,31.47-31.471
			c17.383,0,31.471,14.087,31.471,31.471v209.797C741.271,622.287,727.184,636.375,709.801,636.375z"/>
	</g>
	<g>
		<g>
			<path fill="#0055FF" d="M709.806,636.363c-8.269,0-16.407-3.356-22.242-9.229c-5.872-5.835-9.229-13.933-9.229-22.242
				c0-8.266,3.356-16.407,9.229-22.238c5.835-5.872,13.933-9.231,22.242-9.231c8.266,0,16.402,3.359,22.238,9.231
				c5.871,5.831,9.231,13.973,9.231,22.238c0,8.31-3.36,16.407-9.231,22.242C726.168,633.007,718.071,636.363,709.806,636.363z"/>
		</g>
		<g>
			<path fill="#0055FF" d="M579.896,830.429c-12.801,0-24.254-7.634-29.122-19.467c-3.188-7.761-3.188-16.322,0.041-24.087
				c3.233-7.762,9.314-13.806,17.078-16.993c65.544-27.024,108.889-90.216,110.396-161.002c0-0.041,0-0.041,0-0.041
				c0.215-8.266,3.571-15.99,9.441-21.78c6.127-5.957,14.229-9.063,22.701-8.937c17.33,0.378,31.135,14.772,30.799,32.143
				c-2.139,95.878-60.756,181.396-149.376,217.816C588.034,829.635,584.006,830.429,579.896,830.429z"/>
		</g>
		<g>
			<path fill="#0055FF" d="M500.005,846.164c-8.271,0-16.409-3.356-22.243-9.229c-5.871-5.835-9.227-13.931-9.227-22.242
				c0-8.306,3.356-16.407,9.227-22.237c5.834-5.872,13.932-9.233,22.243-9.233c8.264,0,16.402,3.361,22.236,9.233
				c5.873,5.83,9.233,13.974,9.233,22.237c0,8.271-3.36,16.407-9.233,22.242C516.407,842.808,508.269,846.164,500.005,846.164z"/>
		</g>
	</g>
	<g>
		<g>
			<path fill="#0055FF" d="M290.203,636.363c-8.311,0-16.408-3.356-22.242-9.229c-5.872-5.835-9.228-13.974-9.228-22.242
				c0-8.266,3.356-16.362,9.228-22.238c5.834-5.872,13.932-9.231,22.242-9.231c8.265,0,16.404,3.359,22.238,9.231
				c5.872,5.876,9.231,13.973,9.231,22.238c0,8.269-3.359,16.407-9.231,22.242C306.606,633.007,298.468,636.363,290.203,636.363z"/>
		</g>
		<g>
			<path fill="#0055FF" d="M420.112,830.429L420.112,830.429c-4.115,0-8.142-0.794-11.961-2.348
				c-88.621-36.42-147.238-121.938-149.377-217.816c-0.377-17.37,13.429-31.765,30.797-32.143c8.52-0.168,16.575,2.979,22.661,8.937
				c5.914,5.79,9.273,13.556,9.482,21.821c1.507,70.786,44.813,133.978,110.396,161.002c16.031,6.589,23.709,25.008,17.121,41.08
				C444.321,822.795,432.909,830.429,420.112,830.429z"/>
		</g>
		<g>
			<path fill="#0055FF" d="M500.005,846.164c-8.312,0-16.409-3.356-22.243-9.229c-5.871-5.835-9.227-13.931-9.227-22.242
				c0-8.306,3.356-16.407,9.227-22.237c5.834-5.872,13.932-9.233,22.243-9.233c8.264,0,16.402,3.361,22.236,9.233
				c5.873,5.83,9.233,13.932,9.233,22.237c0,8.271-3.36,16.407-9.233,22.242C516.407,842.808,508.269,846.164,500.005,846.164z"/>
		</g>
	</g>
</g>
</svg>
